<?xml version="1.0" encoding="utf-8"?>
<!-- Generator: Adobe Illustrator 15.0.0, SVG Export Plug-In . SVG Version: 6.00 Build 0)  -->
<!DOCTYPE svg PUBLIC "-//W3C//DTD SVG 1.1//EN" "http://www.w3.org/Graphics/SVG/1.1/DTD/svg11.dtd">
<svg version="1.1" id="Слой_3" xmlns="http://www.w3.org/2000/svg" xmlns:xlink="http://www.w3.org/1999/xlink" x="0px" y="0px"
	 width="61px" height="64px" viewBox="0 0 61 64" enable-background="new 0 0 61 64" xml:space="preserve">
<symbol  id="копия_Символ_21" viewBox="0 -6.5 24.6 6.5">
	<g id="Слой_1_2_">
		
			<radialGradient id="SVGID_1_" cx="12.3003" cy="-3" r="12.2872" gradientTransform="matrix(1 0 0 1.8545 0 2.564)" gradientUnits="userSpaceOnUse">
			<stop  offset="0.1059" style="stop-color:#161917"/>
			<stop  offset="0.9294" style="stop-color:#7E7E7E"/>
		</radialGradient>
		<path fill-rule="evenodd" clip-rule="evenodd" fill="url(#SVGID_1_)" d="M20.95-5.45c-2.4-0.7-5.284-1.05-8.65-1.05
			C8.9-6.5,6-6.15,3.6-5.45C1.233-4.783,0.033-3.983,0-3.05c2.233-1.133,4.717-1.7,7.45-1.7C11.95-4.75,15.8-3.167,19,0
			c0.667-0.133,1.317-0.283,1.95-0.45C23.383-1.15,24.6-2,24.6-3C24.6-3.967,23.383-4.783,20.95-5.45z"/>
	</g>
</symbol>
<path fill-rule="evenodd" clip-rule="evenodd" fill="#FFFFFF" fill-opacity="0.7882" d="M42.109,52.488h-0.041
	c-1.408-0.108-2.6-1.165-3.575-3.169c5.038-3.575,7.854-6.527,8.45-8.856c0.41-1.47,1.114-1.971,2.112-1.503
	c0.574,0.279,1.252,0.889,2.031,1.828l0.975,1.544c-0.921,1.57-1.788,2.952-2.6,4.144c-0.92,1.3-1.814,2.41-2.681,3.331
	c-1.029,1.084-2.004,1.842-2.925,2.275C43.272,52.347,42.691,52.482,42.109,52.488z"/>
<path fill-rule="evenodd" clip-rule="evenodd" fill="#E2E2E2" fill-opacity="0.251" d="M42.881,52.65
	c-2.004,1.246-3.981,2.275-5.931,3.088c-1.399,0.523-2.78,0.915-4.144,1.178c-0.877,0.081-1.771,0.121-2.681,0.122
	c-3.209-0.002-6.053-0.354-8.531-1.056c-1.246-0.488-2.383-1.029-3.413-1.625c-1.95-1.139-3.467-2.52-4.55-4.145
	c-0.108-0.108-0.217-0.244-0.325-0.406c2.377-1.28,4.138-3.041,5.281-5.281c0.212-0.426,2.054-2.836,5.525-7.23
	c3.466-4.383,8.205-8.378,14.219-11.984c6.017-3.614,9.97-6.905,11.863-9.873c2.603,3.081,4.431,6.86,5.484,11.335
	c0.007,0.101,0.021,0.196,0.041,0.284c0.303,1.783,0.411,3.611,0.325,5.484c-0.113,2.069-0.329,3.938-0.65,5.606
	c-0.952,2.999-2.658,5.829-5.119,8.491c0.813-1.192,1.679-2.573,2.6-4.145L51.9,40.951c-1.178-1.421-2.126-2.084-2.844-1.991
	c-0.998-0.468-1.702,0.033-2.112,1.503c-0.596,2.329-3.413,5.281-8.45,8.856c0.975,2.004,2.167,3.061,3.575,3.169h0.041
	C42.358,52.575,42.616,52.631,42.881,52.65z"/>
<linearGradient id="SVGID_2_" gradientUnits="userSpaceOnUse" x1="11.2378" y1="-254.3188" x2="-5.1117" y2="-284.068" gradientTransform="matrix(1.625 0 0 1.625 24.6513 468.7509)">
	<stop  offset="0.0078" style="stop-color:#000000"/>
	<stop  offset="0.1961" style="stop-color:#33700B"/>
	<stop  offset="1" style="stop-color:#FFFFFF"/>
</linearGradient>
<path fill-rule="evenodd" clip-rule="evenodd" fill="url(#SVGID_2_)" d="M50.56,13.285c5.079,5.747,7.449,12.192,7.109,19.338
	c-0.396,7.199-1.967,12.142-4.713,14.828c-1.308,1.26-2.256,2.167-2.844,2.721c-0.297,0.282-0.5,0.472-0.609,0.569
	c-0.207,0.159-0.342,0.228-0.406,0.203c-0.043,0.014-0.083,0.027-0.122,0.04c-0.021,0.188-0.103,0.352-0.244,0.488
	c-5.198,4.797-11.399,7.193-18.606,7.19c-4.173,0.003-7.762-0.553-10.766-1.665c-0.156-0.066-0.278-0.161-0.366-0.285
	c-0.149,0.025-0.298,0.012-0.447-0.041c-2.795-1.058-6.004-3.347-9.628-6.865c-3.655-3.503-5.957-9.299-6.906-17.387
	c-0.953-8.159,1.62-15.256,7.719-21.288c6.034-6.041,13.076-8.641,21.125-7.8C38.872,4.172,45.439,7.489,50.56,13.285z
	 M55.678,26.772c-0.849-4.465-2.961-8.608-6.337-12.431c-4.847-5.472-11.062-8.6-18.647-9.385
	c-7.551-0.784-14.16,1.653-19.825,7.313c-5.71,5.667-8.12,12.33-7.231,19.987c0.892,7.619,3.032,13.091,6.418,16.413
	c2.969,2.871,5.637,4.875,8.003,6.012c0.359,0.167,0.712,0.315,1.056,0.447c0.156,0.065,0.278,0.16,0.366,0.284
	c0.148-0.025,0.298-0.012,0.447,0.04c0.535,0.199,1.09,0.374,1.666,0.529c2.478,0.701,5.322,1.054,8.531,1.056
	c0.91-0.001,1.804-0.041,2.681-0.122c5.637-0.529,10.565-2.75,14.788-6.662c0.129-0.11,0.278-0.178,0.447-0.203V50.01
	c0.009-0.072,0.049-0.167,0.122-0.284v0.04l0.041-0.04c0.02-0.04,0.047-0.081,0.081-0.122c0.042-0.054,0.083-0.094,0.122-0.121
	l0.081-0.041l0.041-0.041c0.118-0.103,0.28-0.252,0.487-0.447c0.577-0.528,1.511-1.409,2.803-2.641
	c1.692-1.733,2.884-4.455,3.575-8.165c0.321-1.669,0.538-3.537,0.65-5.606c0.086-1.873-0.022-3.701-0.325-5.484
	C55.699,26.969,55.686,26.873,55.678,26.772z"/>
<path fill-rule="evenodd" clip-rule="evenodd" fill="#FFFFFF" d="M12.9,19.014c6.337-10.238,10.752-12.757,13.244-7.557
	c-3.683,3.195-6.094,5.281-7.231,6.256c-1.192,0.921-2.058,2.004-2.6,3.25S14.633,21.559,12.9,19.014z M10.219,30.226l-3.981-1.625
	c3.088-6.066,4.875-7.529,5.363-4.388C14.038,27.409,13.578,29.413,10.219,30.226z"/>
<path fill-rule="evenodd" clip-rule="evenodd" fill="#33700B" fill-opacity="0.1529" d="M13.631,50.213
	c-0.217-0.162-0.406-0.324-0.569-0.487c-1.192-1.191-2.194-2.519-3.006-3.981c-1.788-3.195-2.545-5.39-2.275-6.581
	c1.462,1.138,3.006,2.14,4.631,3.007c1.842,0.975,3.764,1.732,5.769,2.274c0.15,0.04,0.286,0.066,0.406,0.081
	c-1.144,2.24-2.904,4.001-5.281,5.281C13.415,49.969,13.523,50.104,13.631,50.213z"/>
<radialGradient id="SVGID_3_" cx="8.2188" cy="-254.6118" r="12.2864" gradientTransform="matrix(1.625 0 0 3.0136 24.6513 822.3078)" gradientUnits="userSpaceOnUse">
	<stop  offset="0.1059" style="stop-color:#161917"/>
	<stop  offset="0.9294" style="stop-color:#7E7E7E"/>
</radialGradient>
<path fill-rule="evenodd" clip-rule="evenodd" fill="url(#SVGID_3_)" d="M36.95,55.738c2.979-0.65,5.552-1.814,7.719-3.494
	c0.92-0.434,1.896-1.191,2.925-2.275c0.145,0.019,0.294,0.032,0.447,0.041v0.041c-0.168,0.025-0.317,0.093-0.447,0.203
	c-4.222,3.912-9.151,6.133-14.788,6.662C34.17,56.653,35.551,56.262,36.95,55.738z M18.06,54.682
	c0.028-0.11,0.069-0.219,0.122-0.324c1.029,0.596,2.167,1.137,3.413,1.625c-0.575-0.155-1.131-0.33-1.666-0.529
	c-0.149-0.052-0.298-0.065-0.447-0.04c-0.087-0.124-0.209-0.219-0.366-0.284C18.771,54.997,18.419,54.849,18.06,54.682z"/>
<path fill-rule="evenodd" clip-rule="evenodd" fill="#33700B" fill-opacity="0.6941" d="M44.669,52.244
	c-2.167,1.68-4.74,2.844-7.719,3.494c1.95-0.813,3.927-1.842,5.931-3.088C43.477,52.65,44.073,52.516,44.669,52.244z"/>
<use xlink:href="#копия_Символ_21"  width="24.6" height="6.5" y="-6.5" transform="matrix(1.625 0 0 -1.625 18.0127 50.126)" overflow="visible" opacity="0.7813"/>
</svg>
