<?xml version="1.0" encoding="utf-8"?>
<!-- Generator: Adobe Illustrator 15.0.0, SVG Export Plug-In . SVG Version: 6.00 Build 0)  -->
<!DOCTYPE svg PUBLIC "-//W3C//DTD SVG 1.1//EN" "http://www.w3.org/Graphics/SVG/1.1/DTD/svg11.dtd">
<svg version="1.1" id="Слой_3" xmlns="http://www.w3.org/2000/svg" xmlns:xlink="http://www.w3.org/1999/xlink" x="0px" y="0px"
	 width="61px" height="64px" viewBox="0 0 61 64" enable-background="new 0 0 61 64" xml:space="preserve">
<symbol  id="копия_Символ_21" viewBox="0 -6.5 24.6 6.5">
	<g id="Слой_1_2_">
		
			<radialGradient id="SVGID_1_" cx="12.3003" cy="-3" r="12.2872" gradientTransform="matrix(1 0 0 1.8545 0 2.564)" gradientUnits="userSpaceOnUse">
			<stop  offset="0.1059" style="stop-color:#161917"/>
			<stop  offset="0.9294" style="stop-color:#7E7E7E"/>
		</radialGradient>
		<path fill-rule="evenodd" clip-rule="evenodd" fill="url(#SVGID_1_)" d="M20.95-5.45c-2.4-0.7-5.284-1.05-8.65-1.05
			C8.9-6.5,6-6.15,3.6-5.45C1.233-4.783,0.033-3.983,0-3.05c2.233-1.133,4.717-1.7,7.45-1.7C11.95-4.75,15.8-3.167,19,0
			c0.667-0.133,1.317-0.283,1.95-0.45C23.383-1.15,24.6-2,24.6-3C24.6-3.967,23.383-4.783,20.95-5.45z"/>
	</g>
</symbol>
<path fill-rule="evenodd" clip-rule="evenodd" fill="#E2E2E2" fill-opacity="0.251" d="M42.819,52.65
	c-2.004,1.246-3.981,2.275-5.931,3.088c-1.405,0.524-2.787,0.917-4.144,1.178c-0.883,0.082-1.777,0.123-2.681,0.122
	c-2.162,0.002-4.22-0.105-6.175-0.325c-0.797-0.194-1.583-0.438-2.356-0.73c-1.246-0.488-2.383-1.029-3.413-1.625
	c-1.76-1.027-4.049-1.528-6.866-1.504c-0.105-0.083-0.214-0.164-0.325-0.244c0.082-0.065,0.163-0.133,0.244-0.203l2.397-2.193
	L11.456,52l-0.65,0.529h-0.041c0.794-1.352,1.132-2.042,1.016-2.072c0.741-0.162,0.674,0.312-0.203,1.422
	c3.928-3.524,6.244-5.976,6.947-7.354c0.212-0.426,2.054-2.836,5.525-7.23c3.466-4.383,8.205-8.378,14.219-11.984
	c6.017-3.614,9.97-6.905,11.863-9.873c2.654,3.143,4.496,7.016,5.525,11.619c1.679,7.313-0.136,13.84-5.444,19.582
	c0.813-1.192,1.679-2.573,2.6-4.145l-0.975-1.543c-0.982-1.185-1.809-1.849-2.478-1.991c-1.5-1.331-2.516-1.047-3.047,0.853
	c-0.596,2.33-3.413,5.281-8.45,8.857c0.827,1.697,1.815,2.713,2.966,3.047C41.427,52.283,42.09,52.595,42.819,52.65z"/>
<path fill-rule="evenodd" clip-rule="evenodd" fill="#FFFFFF" fill-opacity="0.7882" d="M40.828,51.717
	c-1.15-0.334-2.139-1.35-2.966-3.047c5.038-3.576,7.854-6.527,8.45-8.857c0.531-1.899,1.546-2.184,3.047-0.853
	c0.342,0.316,0.708,0.709,1.097,1.179l0.975,1.543c-0.92,1.571-1.788,2.952-2.6,4.145c-0.92,1.299-1.815,2.41-2.681,3.33
	c-1.029,1.084-2.004,1.842-2.925,2.275c-0.596,0.271-1.192,0.406-1.788,0.406C41.223,51.822,41.02,51.78,40.828,51.717z"/>
<linearGradient id="SVGID_2_" gradientUnits="userSpaceOnUse" x1="11.9873" y1="-254.751" x2="-4.3628" y2="-284.5011" gradientTransform="matrix(1.625 0 0 1.625 24.6513 468.7509)">
	<stop  offset="0.0078" style="stop-color:#000000"/>
	<stop  offset="0.1961" style="stop-color:#33700B"/>
	<stop  offset="1" style="stop-color:#FFFFFF"/>
</linearGradient>
<path fill-rule="evenodd" clip-rule="evenodd" fill="url(#SVGID_2_)" d="M11.253,52.854c2.191,1.496,4.466,2.431,6.825,2.803h0.041
	l0.041,0.041c1.803,0.454,3.711,0.793,5.729,1.016c1.955,0.22,4.013,0.327,6.175,0.325c0.904,0.001,1.798-0.04,2.681-0.122
	c5.946-0.552,11.12-3.003,15.519-7.354c0.054-0.054,0.108-0.107,0.162-0.162c5.126-5.089,8.35-11.792,9.669-20.109
	c1.315-8.269-0.499-14.945-5.444-20.027C47.625,4.156,41.138,2.18,33.19,3.332c-8.104,1.16-14.78,4.355-20.028,9.588
	c-5.286,5.187-8.508,11.511-9.669,18.971c-0.772,4.727-0.583,8.748,0.569,12.066c0.637,1.859,1.572,3.498,2.803,4.916
	c1.278,1.429,2.579,2.647,3.9,3.656h0.041c0.045,0.027,0.085,0.055,0.122,0.08C11.039,52.689,11.147,52.771,11.253,52.854z
	 M53.788,8.125c5.347,5.426,7.324,12.563,5.931,21.41c-1.389,8.69-4.774,15.692-10.156,21.003c-0.054,0.054-0.109,0.108-0.163,0.163
	c-5.357,5.305-11.804,7.959-19.337,7.962c-4.516-0.006-8.619-0.479-12.31-1.422l0.082,0.04c-4.349-0.669-8.411-3.12-12.188-7.353
	c-3.81-4.262-5.068-10.355-3.778-18.281c1.223-7.814,4.608-14.437,10.156-19.866C17.502,6.288,24.476,2.93,32.947,1.707
	C41.465,0.476,48.412,2.615,53.788,8.125z"/>
<path fill-rule="evenodd" clip-rule="evenodd" fill="#FFFFFF" d="M23.888,16.413c-1.517,0.759-2.627,1.733-3.332,2.925
	c-0.704,1.191-1.923,0.515-3.656-2.031C24.754,7.232,29.169,4.713,30.144,9.75C27.436,13.38,25.35,15.601,23.888,16.413z M12.756,26
	c2.438,3.196,1.978,5.201-1.381,6.014l-3.981-1.625C10.481,24.321,12.269,22.859,12.756,26z"/>
<path fill-rule="evenodd" clip-rule="evenodd" fill="#33700B" fill-opacity="0.1569" d="M10.766,52.529
	c-1.321-1.009-2.622-2.228-3.9-3.656c-1.231-1.418-2.166-3.057-2.803-4.916c-0.234-1.079-0.194-1.959,0.122-2.641
	c2.767,1.191,5.15,2.044,7.15,2.559c1.995,0.534,3.661,0.778,4.997,0.732c1.34-0.063,2.072-0.091,2.194-0.082
	c-0.703,1.378-3.019,3.829-6.947,7.354c0.877-1.11,0.944-1.584,0.203-1.422C11.898,50.487,11.56,51.178,10.766,52.529z"/>
<path fill-rule="evenodd" clip-rule="evenodd" fill="#770303" fill-opacity="0.1569" d="M10.928,52.609
	c0.201-0.226,0.377-0.429,0.528-0.609l2.113-1.787l-2.397,2.193C11.091,52.477,11.01,52.544,10.928,52.609z"/>
<path fill-rule="evenodd" clip-rule="evenodd" fill="#33700B" fill-opacity="0.6941" d="M36.888,55.738
	c1.95-0.813,3.927-1.842,5.931-3.088c0.596,0,1.192-0.135,1.788-0.406C42.439,53.924,39.867,55.088,36.888,55.738z"/>
<use xlink:href="#копия_Символ_21"  width="24.6" height="6.5" y="-6.5" transform="matrix(2.0301 0 0 -1.625 11.3003 50.2256)" overflow="visible" opacity="0.7813"/>
</svg>
