<?xml version="1.0" encoding="utf-8"?>
<!-- Generator: Adobe Illustrator 15.0.0, SVG Export Plug-In . SVG Version: 6.00 Build 0)  -->
<!DOCTYPE svg PUBLIC "-//W3C//DTD SVG 1.1//EN" "http://www.w3.org/Graphics/SVG/1.1/DTD/svg11.dtd">
<svg version="1.1" id="Слой_2" xmlns="http://www.w3.org/2000/svg" xmlns:xlink="http://www.w3.org/1999/xlink" x="0px" y="0px"
	 width="61px" height="64px" viewBox="0 0 61 64" enable-background="new 0 0 61 64" xml:space="preserve">
<symbol  id="копия_Символ_21" viewBox="0 -6.5 24.6 6.5">
	<g id="Слой_1_2_">
		
			<radialGradient id="SVGID_1_" cx="12.3003" cy="-3" r="12.2872" gradientTransform="matrix(1 0 0 1.8545 0 2.564)" gradientUnits="userSpaceOnUse">
			<stop  offset="0.1059" style="stop-color:#161917"/>
			<stop  offset="0.9294" style="stop-color:#7E7E7E"/>
		</radialGradient>
		<path fill-rule="evenodd" clip-rule="evenodd" fill="url(#SVGID_1_)" d="M20.95-5.45c-2.4-0.7-5.284-1.05-8.65-1.05
			C8.9-6.5,6-6.15,3.6-5.45C1.233-4.783,0.033-3.983,0-3.05c2.233-1.133,4.717-1.7,7.45-1.7C11.95-4.75,15.8-3.167,19,0
			c0.667-0.133,1.317-0.283,1.95-0.45C23.383-1.15,24.6-2,24.6-3C24.6-3.967,23.383-4.783,20.95-5.45z"/>
	</g>
</symbol>
<path fill-rule="evenodd" clip-rule="evenodd" fill="#E2E2E2" fill-opacity="0.251" d="M50.212,46.639
	c0.813-1.192,1.679-2.573,2.6-4.145l-0.975-1.543c-2.112-2.547-3.494-2.654-4.144-0.326c-0.596,2.33-3.413,5.281-8.45,8.857
	c0.975,2.004,2.167,3.06,3.575,3.168c-2.004,1.246-3.981,2.275-5.931,3.088c-1.388,0.519-2.755,0.911-4.104,1.178
	c-0.895,0.081-1.801,0.121-2.722,0.122c-2.172-0.004-4.244-0.112-6.216-0.325c-0.778-0.198-1.55-0.442-2.315-0.73
	c-1.246-0.488-2.383-1.029-3.413-1.625c-2.502-0.508-3.964-1.293-4.387-2.357c-0.423-1.063-0.585-1.794-0.488-2.193
	c2.375-1.28,3.932-2.54,4.672-3.777c0.752-1.241,3.556-3.069,8.41-5.484c4.84-2.417,9.539-6.466,14.097-12.147
	c4.571-5.678,7.808-9.998,9.709-12.96c2.654,3.143,4.496,7.016,5.525,11.619C57.335,34.369,55.521,40.896,50.212,46.639z"/>
<path fill-rule="evenodd" clip-rule="evenodd" fill="#FFFFFF" fill-opacity="0.7882" d="M44.606,52.244
	c-0.596,0.271-1.192,0.406-1.788,0.406c-1.408-0.108-2.6-1.164-3.575-3.168c5.038-3.576,7.854-6.527,8.45-8.857
	c0.65-2.328,2.031-2.221,4.144,0.326l0.975,1.543c-0.921,1.571-1.788,2.952-2.6,4.145c-0.92,1.299-1.814,2.41-2.681,3.33
	C46.502,51.053,45.527,51.811,44.606,52.244z"/>
<linearGradient id="SVGID_2_" gradientUnits="userSpaceOnUse" x1="11.6812" y1="-254.582" x2="-4.6688" y2="-284.332" gradientTransform="matrix(1.625 0 0 1.625 24.6513 468.7509)">
	<stop  offset="0.0078" style="stop-color:#000000"/>
	<stop  offset="0.1961" style="stop-color:#33700B"/>
	<stop  offset="1" style="stop-color:#FFFFFF"/>
</linearGradient>
<path fill-rule="evenodd" clip-rule="evenodd" fill="url(#SVGID_2_)" d="M17.956,55.656c0.068,0.009,0.136,0.022,0.203,0.041
	c0.154,0.039,0.275,0.106,0.366,0.203c0.135-0.027,0.271-0.027,0.406,0c1.563,0.35,3.202,0.62,4.916,0.813
	c1.972,0.213,4.044,0.321,6.216,0.325c0.92-0.001,1.827-0.041,2.722-0.122c5.695-0.555,10.692-2.856,14.991-6.906
	c0.028-0.029,0.056-0.058,0.082-0.081c0.108-0.092,0.229-0.146,0.365-0.163c0.032-0.142,0.1-0.264,0.203-0.365
	c5.11-5.068,7.954-11.271,8.531-18.605c0.579-7.296-1.52-13.62-6.297-18.973c-4.813-5.381-10.934-7.831-18.362-7.354
	C24.759,4.888,18.38,7.703,13.163,12.92c-5.268,5.107-8.166,11.269-8.694,18.484c-0.466,7.177,0.97,12.837,4.306,16.98H8.734
	C11.99,52.355,15.064,54.78,17.956,55.656z M51.878,10.766c5.082,5.698,7.316,12.429,6.703,20.191
	c-0.615,7.723-3.622,14.25-9.019,19.581c-0.102,0.104-0.21,0.171-0.325,0.203c-0.045,0.157-0.126,0.292-0.244,0.406
	c-5.306,5.017-11.616,7.521-18.931,7.516c-4.176,0.006-7.995-0.373-11.456-1.138c-0.188-0.043-0.337-0.138-0.447-0.284
	c-0.136,0.036-0.271,0.036-0.406,0c-3.224-0.814-6.637-3.414-10.237-7.8H7.475c-3.597-4.415-5.141-10.454-4.631-18.119
	c0.555-7.627,3.616-14.141,9.181-19.541c5.506-5.51,12.237-8.488,20.191-8.938C40.17,2.349,46.724,4.989,51.878,10.766z"/>
<path fill-rule="evenodd" clip-rule="evenodd" fill="#FFFFFF" d="M19.744,18.607c-1.137,0.813-1.978,1.841-2.519,3.087
	c-0.596,1.191-1.761,0.515-3.494-2.031c6.771-10.616,11.186-13.136,13.244-7.556C23.237,15.573,20.828,17.74,19.744,18.607z
	 M7.638,32.744c3.087-6.066,4.875-7.529,5.362-4.387c2.438,3.195,1.977,5.199-1.381,6.012L7.638,32.744z"/>
<path fill-rule="evenodd" clip-rule="evenodd" fill="#33700B" fill-opacity="0.1569" d="M10.806,42.982
	c1.842,0.975,3.765,1.732,5.769,2.274c0.162,0.054,0.298,0.081,0.406,0.081c-1.138,2.221-2.898,3.981-5.281,5.281
	c0.108,0.162,0.217,0.298,0.325,0.406c-0.217-0.162-0.406-0.324-0.569-0.487c-1.191-1.191-2.193-2.519-3.006-3.981
	c-1.788-3.195-2.546-5.39-2.275-6.581C7.638,41.113,9.181,42.115,10.806,42.982z"/>
<radialGradient id="SVGID_3_" cx="8.1802" cy="-254.6118" r="12.2873" gradientTransform="matrix(1.625 0 0 3.0136 24.6513 822.3078)" gradientUnits="userSpaceOnUse">
	<stop  offset="0.1059" style="stop-color:#161917"/>
	<stop  offset="0.9294" style="stop-color:#7E7E7E"/>
</radialGradient>
<path fill-rule="evenodd" clip-rule="evenodd" fill="url(#SVGID_3_)" d="M17.956,55.656v-0.649c0-0.217,0.055-0.434,0.163-0.649
	c1.029,0.596,2.167,1.137,3.413,1.625c0.765,0.288,1.537,0.532,2.315,0.73c-1.714-0.192-3.353-0.463-4.916-0.813
	c-0.136-0.027-0.271-0.027-0.406,0c-0.09-0.097-0.212-0.164-0.366-0.203C18.092,55.679,18.024,55.665,17.956,55.656z M36.888,55.738
	c2.979-0.65,5.552-1.814,7.719-3.494c0.92-0.434,1.896-1.191,2.925-2.275c0.083,0.011,0.164,0.024,0.244,0.041
	c-4.298,4.05-9.295,6.352-14.991,6.906C34.132,56.649,35.5,56.257,36.888,55.738z"/>
<path fill-rule="evenodd" clip-rule="evenodd" fill="#33700B" fill-opacity="0.6941" d="M42.819,52.65
	c0.596,0,1.192-0.135,1.788-0.406c-2.167,1.68-4.74,2.844-7.719,3.494C38.837,54.926,40.814,53.896,42.819,52.65z"/>
<use xlink:href="#копия_Символ_21"  width="24.6" height="6.5" y="-6.5" transform="matrix(1.7835 0 0 -1.625 16 50.126)" overflow="visible" opacity="0.7813"/>
</svg>
