<?xml version="1.0" encoding="utf-8"?>
<!-- Generator: Adobe Illustrator 15.0.0, SVG Export Plug-In . SVG Version: 6.00 Build 0)  -->
<!DOCTYPE svg PUBLIC "-//W3C//DTD SVG 1.1//EN" "http://www.w3.org/Graphics/SVG/1.1/DTD/svg11.dtd">
<svg version="1.1" id="Слой_3" xmlns="http://www.w3.org/2000/svg" xmlns:xlink="http://www.w3.org/1999/xlink" x="0px" y="0px"
	 width="61px" height="64px" viewBox="0 0 61 64" enable-background="new 0 0 61 64" xml:space="preserve">
<symbol  id="копия_Символ_21" viewBox="0 -6.5 24.6 6.5">
	<g id="Слой_1_2_">
		
			<radialGradient id="SVGID_1_" cx="12.3003" cy="-3" r="12.2872" gradientTransform="matrix(1 0 0 1.8545 0 2.564)" gradientUnits="userSpaceOnUse">
			<stop  offset="0.1059" style="stop-color:#161917"/>
			<stop  offset="0.9294" style="stop-color:#7E7E7E"/>
		</radialGradient>
		<path fill-rule="evenodd" clip-rule="evenodd" fill="url(#SVGID_1_)" d="M20.95-5.45c-2.4-0.7-5.284-1.05-8.65-1.05
			C8.9-6.5,6-6.15,3.6-5.45C1.233-4.783,0.033-3.983,0-3.05c2.233-1.133,4.717-1.7,7.45-1.7C11.95-4.75,15.8-3.167,19,0
			c0.667-0.133,1.317-0.283,1.95-0.45C23.383-1.15,24.6-2,24.6-3C24.6-3.967,23.383-4.783,20.95-5.45z"/>
	</g>
</symbol>
<path fill-rule="evenodd" clip-rule="evenodd" fill="#FFFFFF" fill-opacity="0.7882" d="M42.372,52.569
	c-0.446,0.163-0.893,0.243-1.341,0.243c-1.408-0.107-2.6-1.164-3.575-3.168c5.038-3.575,7.854-6.527,8.45-8.856
	c0.442-1.585,1.228-2.045,2.356-1.382c0.516,0.324,1.112,0.893,1.787,1.707l0.975,1.543c-0.92,1.571-1.788,2.953-2.6,4.145
	c-0.92,1.3-1.815,2.41-2.681,3.331c-1.029,1.083-2.004,1.842-2.925,2.274C42.671,52.474,42.522,52.528,42.372,52.569z"/>
<path fill-rule="evenodd" clip-rule="evenodd" fill="#E2E2E2" fill-opacity="0.251" d="M42.819,52.65
	c-2.004,1.246-3.981,2.275-5.931,3.088c-1.399,0.523-2.78,0.915-4.144,1.178c-0.877,0.081-1.771,0.121-2.681,0.122
	c-3.209-0.002-6.053-0.354-8.531-1.056c-1.246-0.488-2.383-1.029-3.413-1.625c-1.95-1.139-3.467-2.52-4.55-4.145
	c-0.108-0.108-0.217-0.244-0.325-0.406c2.377-1.28,4.328-1.849,5.85-1.706c0.885-1.328,4.432-2.899,10.644-4.712
	c6.215-1.815,10.697-6.19,13.447-13.123c2.746-6.925,5.063-11.867,6.947-14.828c2.603,3.081,4.431,6.86,5.484,11.335
	c0.007,0.101,0.021,0.196,0.041,0.284c0.303,1.783,0.411,3.611,0.325,5.484c-0.113,2.069-0.329,3.938-0.65,5.606
	c-0.952,2.999-2.658,5.829-5.119,8.491c0.813-1.192,1.679-2.573,2.6-4.145l-0.975-1.543c-1.635-1.97-2.826-2.484-3.575-1.545
	c-1.129-0.663-1.915-0.203-2.356,1.382c-0.596,2.329-3.413,5.281-8.45,8.856c0.975,2.004,2.167,3.061,3.575,3.168
	c0.448,0,0.895-0.08,1.341-0.243C42.52,52.612,42.668,52.64,42.819,52.65z"/>
<linearGradient id="SVGID_2_" gradientUnits="userSpaceOnUse" x1="11.1997" y1="-254.3179" x2="-5.1503" y2="-284.0679" gradientTransform="matrix(1.625 0 0 1.625 24.6513 468.7509)">
	<stop  offset="0.0078" style="stop-color:#000000"/>
	<stop  offset="0.1961" style="stop-color:#33700B"/>
	<stop  offset="1" style="stop-color:#FFFFFF"/>
</linearGradient>
<path fill-rule="evenodd" clip-rule="evenodd" fill="url(#SVGID_2_)" d="M50.497,13.285c5.079,5.747,7.449,12.192,7.109,19.338
	c-0.396,7.199-1.967,12.142-4.713,14.828c-1.308,1.26-2.256,2.167-2.844,2.721c-0.297,0.282-0.5,0.472-0.609,0.569
	c-0.207,0.159-0.342,0.228-0.406,0.203c-0.043,0.014-0.083,0.027-0.122,0.04c-0.021,0.188-0.103,0.352-0.244,0.488
	c-5.198,4.797-11.399,7.193-18.606,7.19c-4.173,0.003-7.762-0.553-10.766-1.665c-0.156-0.066-0.278-0.161-0.366-0.285
	c-0.149,0.025-0.298,0.012-0.447-0.041c-2.795-1.058-6.004-3.347-9.628-6.865C5.201,46.304,2.899,40.508,1.95,32.42
	c-0.953-8.159,1.62-15.256,7.719-21.288c6.034-6.041,13.076-8.641,21.125-7.8C38.81,4.172,45.377,7.489,50.497,13.285z
	 M55.616,26.772c-0.849-4.465-2.961-8.608-6.337-12.431c-4.847-5.472-11.062-8.6-18.647-9.385C23.08,4.173,16.471,6.61,10.806,12.27
	c-5.71,5.667-8.12,12.33-7.231,19.987c0.892,7.619,3.032,13.091,6.418,16.413c2.969,2.871,5.637,4.875,8.003,6.012
	c0.359,0.167,0.712,0.315,1.056,0.447c0.156,0.065,0.278,0.16,0.366,0.284c0.148-0.025,0.298-0.012,0.447,0.04
	c0.535,0.199,1.09,0.374,1.666,0.529c2.478,0.701,5.322,1.054,8.531,1.056c0.91-0.001,1.804-0.041,2.681-0.122
	c5.637-0.529,10.565-2.75,14.788-6.662c0.129-0.11,0.278-0.178,0.447-0.203V50.01c0.009-0.072,0.049-0.167,0.122-0.284v0.04
	l0.041-0.04c0.02-0.04,0.047-0.081,0.081-0.122c0.042-0.054,0.083-0.094,0.122-0.121l0.081-0.041l0.041-0.041
	c0.118-0.103,0.28-0.252,0.487-0.447c0.577-0.528,1.511-1.409,2.803-2.641c1.692-1.733,2.884-4.455,3.575-8.165
	c0.321-1.669,0.538-3.537,0.65-5.606c0.086-1.873-0.022-3.701-0.325-5.484C55.636,26.969,55.623,26.873,55.616,26.772z"/>
<path fill-rule="evenodd" clip-rule="evenodd" fill="#FFFFFF" d="M13.406,17.875C20.398,8.4,25.138,6.26,27.625,11.457
	c-4.886,3.216-7.716,5.18-8.491,5.891c-0.786,0.716-1.584,1.515-2.397,2.396C15.938,20.62,14.827,19.997,13.406,17.875z
	 M12.188,25.757c2.438,3.196,1.977,5.2-1.381,6.013l-3.981-1.625C9.913,24.078,11.7,22.615,12.188,25.757z"/>
<path fill-rule="evenodd" clip-rule="evenodd" fill="#33700B" fill-opacity="0.1569" d="M13.569,50.213
	c-0.216-0.166-0.704-0.424-1.462-0.771c-0.762-0.34-1.845-1.464-3.25-3.372c-1.404-1.912-1.784-4.214-1.138-6.906
	c1.457,1.137,2.919,2.41,4.388,3.819c1.483,1.413,2.783,2.24,3.9,2.478c1.104,0.229,2.134,1.109,3.087,2.641
	c-1.522-0.143-3.473,0.426-5.85,1.706C13.352,49.969,13.46,50.104,13.569,50.213z"/>
<radialGradient id="SVGID_3_" cx="8.1802" cy="-254.6118" r="12.2873" gradientTransform="matrix(1.625 0 0 3.0136 24.6513 822.3078)" gradientUnits="userSpaceOnUse">
	<stop  offset="0.1059" style="stop-color:#161917"/>
	<stop  offset="0.9294" style="stop-color:#7E7E7E"/>
</radialGradient>
<path fill-rule="evenodd" clip-rule="evenodd" fill="url(#SVGID_3_)" d="M36.888,55.738c2.979-0.65,5.552-1.814,7.719-3.494
	c0.92-0.434,1.896-1.191,2.925-2.275c0.145,0.019,0.294,0.032,0.447,0.041v0.041c-0.168,0.025-0.317,0.093-0.447,0.203
	c-4.222,3.912-9.151,6.133-14.788,6.662C34.107,56.653,35.488,56.262,36.888,55.738z M17.997,54.682
	c0.028-0.11,0.069-0.219,0.122-0.324c1.029,0.596,2.167,1.137,3.413,1.625c-0.575-0.155-1.131-0.33-1.666-0.529
	c-0.149-0.052-0.298-0.065-0.447-0.04c-0.087-0.124-0.209-0.219-0.366-0.284C18.709,54.997,18.356,54.849,17.997,54.682z"/>
<path fill-rule="evenodd" clip-rule="evenodd" fill="#33700B" fill-opacity="0.6941" d="M44.606,52.244
	c-2.167,1.68-4.74,2.844-7.719,3.494c1.95-0.813,3.927-1.842,5.931-3.088C43.415,52.65,44.011,52.516,44.606,52.244z"/>
<use xlink:href="#копия_Символ_21"  width="24.6" height="6.5" y="-6.5" transform="matrix(1.625 0 0 -1.625 17.9502 50.126)" overflow="visible" opacity="0.7813"/>
</svg>
