<?xml version="1.0" encoding="utf-8"?>
<!-- Generator: Adobe Illustrator 15.0.0, SVG Export Plug-In . SVG Version: 6.00 Build 0)  -->
<!DOCTYPE svg PUBLIC "-//W3C//DTD SVG 1.1//EN" "http://www.w3.org/Graphics/SVG/1.1/DTD/svg11.dtd">
<svg version="1.1" id="Selected_Items" xmlns="http://www.w3.org/2000/svg" xmlns:xlink="http://www.w3.org/1999/xlink" x="0px"
	 y="0px" width="61px" height="64px" viewBox="0 0 61 64" enable-background="new 0 0 61 64" xml:space="preserve">
<symbol  id="копия_Символ_21" viewBox="0 -6.5 24.6 6.5">
	<g id="Слой_1_2_">
		
			<radialGradient id="SVGID_1_" cx="12.3003" cy="-3" r="12.2872" gradientTransform="matrix(1 0 0 1.8545 0 2.564)" gradientUnits="userSpaceOnUse">
			<stop  offset="0.1059" style="stop-color:#161917"/>
			<stop  offset="0.9294" style="stop-color:#7E7E7E"/>
		</radialGradient>
		<path fill-rule="evenodd" clip-rule="evenodd" fill="url(#SVGID_1_)" d="M20.95-5.45c-2.4-0.7-5.284-1.05-8.65-1.05
			C8.9-6.5,6-6.15,3.6-5.45C1.233-4.783,0.033-3.983,0-3.05c2.233-1.133,4.717-1.7,7.45-1.7C11.95-4.75,15.8-3.167,19,0
			c0.667-0.133,1.317-0.283,1.95-0.45C23.383-1.15,24.6-2,24.6-3C24.6-3.967,23.383-4.783,20.95-5.45z"/>
	</g>
</symbol>
<path fill-rule="evenodd" clip-rule="evenodd" fill="#E2E2E2" fill-opacity="0.251" d="M42.819,52.65
	c-2.004,1.246-3.981,2.275-5.931,3.088c-1.39,0.519-2.757,0.912-4.104,1.178c-0.895,0.081-1.803,0.121-2.722,0.122
	c-4.051,0.005-7.735-0.754-11.05-2.274c-0.092-0.047-0.187-0.073-0.285-0.082c-0.028-0.013-0.055-0.026-0.081-0.041
	c-0.082-0.116-0.19-0.211-0.325-0.283c-0.592-0.315-1.174-0.654-1.747-1.016c-1.226-0.919-2.228-1.961-3.006-3.129
	c-0.108-0.108-0.217-0.244-0.325-0.406c2.817-1.517,5.498-3.061,8.044-4.631c1.082-0.694,2.138-1.398,3.168-2.113
	c8.078-5.578,14.687-11.753,19.825-18.524c2.221-2.925,4.171-5.958,5.85-9.101c2.654,3.143,4.496,7.016,5.525,11.619
	c0.121,0.525,0.229,1.039,0.325,1.544c0.054,0.805,0.081,1.617,0.081,2.438c0,3.698-0.677,7.124-2.031,10.278
	c-0.305,0.583-0.643,1.166-1.016,1.746c-0.796,1.225-1.731,2.416-2.803,3.576c0.713-1.046,1.472-2.238,2.275-3.576
	c0.104-0.187,0.212-0.376,0.325-0.568l-0.975-1.543c-2.112-2.547-3.494-2.654-4.144-0.326c-0.192,0.749-0.612,1.562-1.259,2.438
	c-1.375,1.854-3.771,3.993-7.191,6.42C40.219,51.486,41.411,52.542,42.819,52.65z"/>
<path fill-rule="evenodd" clip-rule="evenodd" fill="#FFFFFF" fill-opacity="0.7882" d="M44.606,52.244
	c-0.596,0.271-1.192,0.406-1.788,0.406c-1.408-0.108-2.6-1.164-3.575-3.168c3.42-2.427,5.816-4.566,7.191-6.42
	c0.647-0.876,1.067-1.688,1.259-2.438c0.65-2.328,2.031-2.221,4.144,0.326l0.975,1.543c-0.113,0.192-0.221,0.382-0.325,0.568
	c-0.803,1.338-1.562,2.53-2.275,3.576c-0.92,1.299-1.814,2.41-2.681,3.33C46.502,51.053,45.527,51.811,44.606,52.244z"/>
<linearGradient id="SVGID_2_" gradientUnits="userSpaceOnUse" x1="11.501" y1="-254.4834" x2="-4.849" y2="-284.2334" gradientTransform="matrix(1.625 0 0 1.625 24.6513 468.7509)">
	<stop  offset="0.0078" style="stop-color:#000000"/>
	<stop  offset="0.1961" style="stop-color:#33700B"/>
	<stop  offset="1" style="stop-color:#FFFFFF"/>
</linearGradient>
<path fill-rule="evenodd" clip-rule="evenodd" fill="url(#SVGID_2_)" d="M54.031,41.316c1.354-3.154,2.031-6.58,2.031-10.278
	c0-0.82-0.027-1.633-0.081-2.438c-0.525-6.147-3.044-11.456-7.557-15.925c-5.044-5.093-11.165-7.64-18.362-7.638
	C22.865,5.036,16.744,7.583,11.7,12.676C6.607,17.72,4.061,23.841,4.063,31.038c0,6.654,2.167,12.396,6.5,17.226l0.041,0.04
	c0.366,0.366,0.731,0.731,1.097,1.097c1.536,1.534,3.161,2.848,4.875,3.941c0.572,0.361,1.155,0.7,1.747,1.016
	c0.135,0.072,0.244,0.167,0.325,0.283v0.041h0.081c0.098,0.009,0.193,0.035,0.285,0.082c3.315,1.521,6.999,2.279,11.05,2.274
	c0.919-0.001,1.827-0.041,2.722-0.122c5.694-0.553,10.691-2.855,14.991-6.906c0.028-0.029,0.056-0.058,0.082-0.081
	c0.107-0.091,0.229-0.146,0.365-0.163c0.032-0.142,0.1-0.264,0.203-0.365c2.098-2.051,3.75-4.285,4.957-6.703
	C53.615,42.237,53.832,41.776,54.031,41.316z M57.688,31.038c0,4.521-0.948,8.651-2.844,12.391
	c-1.285,2.566-3.045,4.936-5.281,7.109c-0.102,0.104-0.21,0.171-0.325,0.203c-0.045,0.156-0.126,0.292-0.244,0.406
	c-5.306,5.017-11.616,7.521-18.931,7.516c-4.29-0.005-8.19-0.817-11.7-2.438c-0.166-0.071-0.288-0.18-0.365-0.325
	c-0.144,0.01-0.28-0.017-0.406-0.081c-2.51-1.343-4.853-3.104-7.028-5.281c-0.379-0.379-0.758-0.759-1.138-1.138H9.384v-0.041
	c-4.631-5.13-6.948-11.237-6.947-18.321c0.001-7.645,2.709-14.145,8.125-19.5c5.356-5.415,11.856-8.124,19.5-8.125
	c7.644,0.001,14.144,2.71,19.5,8.125C54.978,16.894,57.686,23.394,57.688,31.038z"/>
<path fill-rule="evenodd" clip-rule="evenodd" fill="#FFFFFF" d="M11.862,19.663c-0.054,0-0.081-0.027-0.081-0.081l-0.813-1.625
	c7.204-9.858,11.944-11.754,14.219-5.688c-4.496,2.546-7.394,4.82-8.694,6.824c-0.271,0.434-0.487,0.84-0.65,1.219
	C14.977,22.534,13.65,22.317,11.862,19.663z M11.05,30.551l-3.981-1.625c0.596-7.963,2.384-9.426,5.362-4.388
	C12.594,27.409,12.133,29.413,11.05,30.551z"/>
<path fill-rule="evenodd" clip-rule="evenodd" fill="#057703" fill-opacity="0.1569" d="M13.569,50.213
	c-0.217-0.162-0.406-0.324-0.569-0.487c-1.192-1.191-2.194-2.519-3.006-3.981c-1.788-3.195-2.545-5.39-2.275-6.581
	c1.462,1.138,3.006,2.14,4.631,3.007c0.607,0.321,1.23,0.619,1.869,0.893c1.257,0.559,2.557,1.019,3.9,1.382
	c1.029,0.271,2.085,0.515,3.169,0.731c-2.546,1.57-5.227,3.114-8.044,4.631C13.352,49.969,13.46,50.104,13.569,50.213z"/>
<radialGradient id="SVGID_3_" cx="8.1807" cy="-254.6118" r="12.2863" gradientTransform="matrix(1.625 0 0 3.0136 24.6513 822.3078)" gradientUnits="userSpaceOnUse">
	<stop  offset="0.1059" style="stop-color:#161917"/>
	<stop  offset="0.9294" style="stop-color:#7E7E7E"/>
</radialGradient>
<path fill-rule="evenodd" clip-rule="evenodd" fill="url(#SVGID_3_)" d="M18.728,54.682h-0.081v-0.041
	C18.673,54.655,18.7,54.669,18.728,54.682z M36.888,55.738c2.979-0.65,5.552-1.814,7.719-3.494c0.92-0.434,1.896-1.191,2.925-2.275
	c0.083,0.011,0.164,0.024,0.244,0.041c-4.3,4.051-9.296,6.354-14.991,6.906C34.13,56.65,35.498,56.257,36.888,55.738z"/>
<path fill-rule="evenodd" clip-rule="evenodd" fill="#33700B" fill-opacity="0.6941" d="M42.819,52.65
	c0.596,0,1.192-0.135,1.788-0.406c-2.167,1.68-4.74,2.844-7.719,3.494C38.837,54.926,40.814,53.896,42.819,52.65z"/>
<use xlink:href="#копия_Символ_21"  width="24.6" height="6.5" y="-6.5" transform="matrix(1.625 0 0 -1.625 17.9502 50.126)" overflow="visible" opacity="0.7813"/>
</svg>
