<?xml version="1.0" encoding="utf-8"?>
<!-- Generator: Adobe Illustrator 15.0.0, SVG Export Plug-In . SVG Version: 6.00 Build 0)  -->
<!DOCTYPE svg PUBLIC "-//W3C//DTD SVG 1.1//EN" "http://www.w3.org/Graphics/SVG/1.1/DTD/svg11.dtd">
<svg version="1.1" id="Selected_Items" xmlns="http://www.w3.org/2000/svg" xmlns:xlink="http://www.w3.org/1999/xlink" x="0px"
	 y="0px" width="61px" height="64px" viewBox="0 0 61 64" enable-background="new 0 0 61 64" xml:space="preserve">
<path opacity="0.79" fill="#E2E2E2" fill-opacity="0.251" enable-background="new    " d="M42.818,52.65
	c-2.004,1.246-3.98,2.272-5.93,3.088c-1.393,0.519-2.76,0.912-4.104,1.178c-0.896,0.081-1.803,0.121-2.722,0.122
	c-4.051,0.005-7.735-0.754-11.05-2.274c-0.092-0.047-0.187-0.072-0.285-0.082c-0.028-0.013-0.055-0.023-0.081-0.041
	c-0.082-0.115-0.19-0.211-0.325-0.283c-0.592-0.313-1.174-0.651-1.747-1.016c-1.226-0.919-2.228-1.961-3.006-3.129
	c-0.108-0.107-0.217-0.244-0.325-0.406c2.817-1.517,5.498-3.061,8.044-4.631c1.082-0.693,2.138-1.398,3.168-2.113
	c8.078-5.578,14.688-11.75,19.824-18.521c2.222-2.925,4.172-5.958,5.851-9.101c2.654,3.143,4.496,7.016,5.524,11.619
	c0.121,0.525,0.229,1.039,0.326,1.544c0.054,0.805,0.08,1.617,0.08,2.438c0,3.695-0.679,7.124-2.031,10.275
	c-0.305,0.584-0.643,1.166-1.016,1.746c-0.798,1.228-1.73,2.416-2.805,3.576c0.713-1.046,1.475-2.238,2.273-3.576
	c0.104-0.187,0.213-0.375,0.324-0.565l-0.975-1.543c-2.111-2.547-3.494-2.654-4.145-0.326c-0.191,0.749-0.611,1.563-1.258,2.438
	c-1.375,1.854-3.771,3.992-7.191,6.42C40.219,51.486,41.411,52.542,42.818,52.65z"/>
<path opacity="0.68" fill="#FFFFFF" fill-opacity="0.7882" enable-background="new    " d="M44.605,52.244
	c-0.598,0.271-1.191,0.406-1.787,0.406c-1.408-0.108-2.603-1.164-3.575-3.168c3.42-2.428,5.815-4.566,7.19-6.42
	c0.646-0.877,1.065-1.688,1.26-2.438c0.647-2.328,2.031-2.222,4.144,0.326l0.976,1.543c-0.111,0.192-0.222,0.382-0.326,0.567
	c-0.803,1.338-1.562,2.528-2.272,3.574c-0.92,1.301-1.813,2.41-2.681,3.33C46.502,51.053,45.527,51.811,44.605,52.244z"/>
<linearGradient id="SVGID_1_" gradientUnits="userSpaceOnUse" x1="-296.6509" y1="-11.6982" x2="-313.0008" y2="18.0515" gradientTransform="matrix(1.625 0 0 -1.625 525.3965 36.207)">
	<stop  offset="0.0078" style="stop-color:#000000"/>
	<stop  offset="0.1961" style="stop-color:#A5B09E"/>
	<stop  offset="1" style="stop-color:#FFFFFF"/>
</linearGradient>
<path opacity="0.63" fill="url(#SVGID_1_)" enable-background="new    " d="M54.031,41.316c1.354-3.154,2.031-6.58,2.031-10.278
	c0-0.82-0.027-1.633-0.082-2.438c-0.524-6.147-3.043-11.456-7.559-15.925c-5.044-5.093-11.165-7.64-18.362-7.638
	c-7.195-0.001-13.316,2.546-18.36,7.639C6.607,17.72,4.061,23.841,4.063,31.038c0,6.653,2.167,12.396,6.5,17.226l0.041,0.041
	c0.366,0.365,0.731,0.73,1.097,1.096c1.536,1.535,3.161,2.851,4.875,3.941c0.572,0.361,1.155,0.7,1.747,1.016
	c0.135,0.072,0.244,0.168,0.325,0.283v0.041h0.081c0.098,0.01,0.193,0.035,0.285,0.082c3.315,1.521,6.999,2.279,11.05,2.274
	c0.919-0.001,1.827-0.041,2.722-0.122c5.694-0.553,10.69-2.855,14.991-6.906c0.027-0.029,0.056-0.058,0.082-0.08
	c0.104-0.092,0.229-0.146,0.365-0.164c0.029-0.142,0.1-0.264,0.2-0.365c2.101-2.051,3.75-4.282,4.957-6.7
	C53.615,42.236,53.832,41.775,54.031,41.316z M57.688,31.038c0,4.521-0.945,8.651-2.844,12.392
	c-1.285,2.565-3.045,4.938-5.281,7.108c-0.102,0.104-0.209,0.171-0.324,0.203c-0.045,0.155-0.127,0.292-0.242,0.405
	c-5.309,5.018-11.616,7.521-18.931,7.517c-4.29-0.005-8.19-0.817-11.7-2.438c-0.166-0.068-0.288-0.18-0.365-0.324
	c-0.144,0.012-0.28-0.018-0.406-0.082c-2.51-1.342-4.853-3.104-7.028-5.278c-0.38-0.38-0.759-0.76-1.139-1.14H9.384v-0.041
	c-4.631-5.131-6.948-11.236-6.947-18.32c0.001-7.645,2.709-14.145,8.125-19.5c5.356-5.415,11.856-8.124,19.5-8.125
	c7.644,0.001,14.144,2.71,19.5,8.125C54.979,16.894,57.686,23.394,57.688,31.038z"/>
<path opacity="0.61" fill="#FFFFFF" enable-background="new    " d="M11.862,19.663c-0.054,0-0.081-0.027-0.081-0.081l-0.813-1.625
	c7.204-9.858,11.944-11.754,14.219-5.688c-4.496,2.546-7.394,4.82-8.694,6.824c-0.271,0.434-0.487,0.84-0.65,1.219
	C14.977,22.534,13.65,22.317,11.862,19.663z M11.05,30.551l-3.981-1.625c0.596-7.963,2.384-9.426,5.362-4.388
	C12.594,27.409,12.133,29.413,11.05,30.551z"/>
<path opacity="0.85" fill="#08B805" fill-opacity="0.1569" enable-background="new    " d="M13.569,50.213
	c-0.217-0.162-0.406-0.324-0.569-0.486c-1.192-1.189-2.194-2.52-3.006-3.979c-1.788-3.195-2.545-5.392-2.275-6.581
	c1.462,1.139,3.006,2.143,4.631,3.007c0.607,0.321,1.23,0.619,1.869,0.896c1.257,0.559,2.557,1.019,3.9,1.381
	c1.029,0.271,2.085,0.516,3.169,0.73c-2.546,1.569-5.227,3.113-8.044,4.633C13.352,49.969,13.46,50.104,13.569,50.213z"/>
<radialGradient id="SVGID_2_" cx="-299.9702" cy="319.582" r="12.2844" gradientTransform="matrix(1.625 0 0 -3.0136 525.3965 1018.108)" gradientUnits="userSpaceOnUse">
	<stop  offset="0.1059" style="stop-color:#161917"/>
	<stop  offset="0.9294" style="stop-color:#7E7E7E"/>
</radialGradient>
<path opacity="0.46" fill="url(#SVGID_2_)" enable-background="new    " d="M18.728,54.682h-0.081v-0.041
	C18.673,54.655,18.7,54.669,18.728,54.682z M36.889,55.738c2.979-0.65,5.551-1.814,7.719-3.494c0.92-0.434,1.896-1.191,2.927-2.275
	c0.083,0.012,0.161,0.024,0.241,0.041c-4.299,4.051-9.295,6.354-14.988,6.906C34.13,56.65,35.498,56.257,36.889,55.738z"/>
<path opacity="0.51" fill="#33700B" fill-opacity="0.6941" enable-background="new    " d="M42.818,52.65
	c0.597,0,1.193-0.135,1.789-0.406c-2.168,1.68-4.74,2.844-7.719,3.494C38.837,54.926,40.814,53.896,42.818,52.65z"/>
<g id="копия_Символ_21">
	<g id="Слой_1_1_" opacity="0.75">
		
			<radialGradient id="SVGID_3_" cx="37.9375" cy="8175.8564" r="19.9676" gradientTransform="matrix(1 0 0 1.8545 0 -15107.1348)" gradientUnits="userSpaceOnUse">
			<stop  offset="0.1059" style="stop-color:#161917"/>
			<stop  offset="0.9294" style="stop-color:#C4C4C4"/>
		</radialGradient>
		<path fill="url(#SVGID_3_)" d="M51.993,58.982c-3.899,1.138-8.586,1.706-14.056,1.706c-5.524,0-10.237-0.568-14.138-1.706
			c-3.846-1.084-5.796-2.384-5.85-3.9c3.628,1.841,7.665,2.763,12.106,2.763c7.312,0,13.569-2.572,18.769-7.719
			c1.084,0.216,2.14,0.46,3.168,0.731c3.954,1.138,5.932,2.519,5.932,4.144C57.925,56.572,55.947,57.898,51.993,58.982z"/>
	</g>
</g>
</svg>
