<?xml version="1.0" encoding="utf-8"?>
<!-- Generator: Adobe Illustrator 15.0.0, SVG Export Plug-In . SVG Version: 6.00 Build 0)  -->
<!DOCTYPE svg PUBLIC "-//W3C//DTD SVG 1.1//EN" "http://www.w3.org/Graphics/SVG/1.1/DTD/svg11.dtd">
<svg version="1.1" id="Слой_2" xmlns="http://www.w3.org/2000/svg" xmlns:xlink="http://www.w3.org/1999/xlink" x="0px" y="0px"
	 width="61px" height="64px" viewBox="0 0 61 64" enable-background="new 0 0 61 64" xml:space="preserve">
<symbol  id="копия_Символ_21" viewBox="0 -6.5 24.6 6.5">
	<g id="Слой_1_2_">
		
			<radialGradient id="SVGID_1_" cx="12.3003" cy="-3" r="12.2872" gradientTransform="matrix(1 0 0 1.8545 0 2.564)" gradientUnits="userSpaceOnUse">
			<stop  offset="0.1059" style="stop-color:#161917"/>
			<stop  offset="0.9294" style="stop-color:#7E7E7E"/>
		</radialGradient>
		<path fill-rule="evenodd" clip-rule="evenodd" fill="url(#SVGID_1_)" d="M20.95-5.45c-2.4-0.7-5.284-1.05-8.65-1.05
			C8.9-6.5,6-6.15,3.6-5.45C1.233-4.783,0.033-3.983,0-3.05c2.233-1.133,4.717-1.7,7.45-1.7C11.95-4.75,15.8-3.167,19,0
			c0.667-0.133,1.317-0.283,1.95-0.45C23.383-1.15,24.6-2,24.6-3C24.6-3.967,23.383-4.783,20.95-5.45z"/>
	</g>
</symbol>
<path fill-rule="evenodd" clip-rule="evenodd" fill="#E2E2E2" fill-opacity="0.251" d="M50.275,46.639
	c0.813-1.192,1.679-2.573,2.6-4.145L51.9,40.951c-2.112-2.547-3.494-2.654-4.144-0.326c-0.596,2.33-3.413,5.281-8.45,8.857
	c0.975,2.004,2.167,3.06,3.575,3.168c-2.004,1.246-3.981,2.275-5.931,3.088c-1.393,0.52-2.774,0.913-4.144,1.178
	c-0.871,0.081-1.765,0.121-2.681,0.122c-2.544,0.002-4.981-0.215-7.313-0.649c-0.411-0.119-0.817-0.255-1.219-0.406
	c-0.783-0.308-1.637-0.47-2.56-0.488c-0.122-0.043-0.244-0.083-0.365-0.121c-0.159-0.055-0.308-0.055-0.447,0
	c-0.082-0.093-0.176-0.161-0.284-0.203l0.081-0.163c0-0.14-0.095-0.112-0.284,0.081c-0.329-0.108-0.654-0.231-0.975-0.365
	c-1.154-1.614-2.197-3.104-3.128-4.469c2.292-1.834,3.943-3.743,4.956-5.729c0.21-0.419,0.4-0.853,0.569-1.3
	C24.19,33.162,30.121,26.729,36.95,23.929c6.829-2.801,11.243-5.631,13.244-8.491c2.654,3.143,4.496,7.016,5.525,11.619
	C57.398,34.369,55.583,40.896,50.275,46.639z"/>
<path fill-rule="evenodd" clip-rule="evenodd" fill="#FFFFFF" fill-opacity="0.7882" d="M44.669,52.244
	c-0.596,0.271-1.192,0.406-1.788,0.406c-1.408-0.108-2.6-1.164-3.575-3.168c5.038-3.576,7.854-6.527,8.45-8.857
	c0.65-2.328,2.031-2.221,4.144,0.326l0.975,1.543c-0.921,1.571-1.788,2.952-2.6,4.145c-0.92,1.299-1.814,2.41-2.681,3.33
	C46.564,51.053,45.589,51.811,44.669,52.244z"/>
<linearGradient id="SVGID_2_" gradientUnits="userSpaceOnUse" x1="11.7236" y1="-254.5845" x2="-4.6264" y2="-284.3345" gradientTransform="matrix(1.625 0 0 1.625 24.6513 468.7509)">
	<stop  offset="0.0078" style="stop-color:#000000"/>
	<stop  offset="0.1961" style="stop-color:#33700B"/>
	<stop  offset="1" style="stop-color:#FFFFFF"/>
</linearGradient>
<path fill-rule="evenodd" clip-rule="evenodd" fill="url(#SVGID_2_)" d="M17.734,55.088c0.046,0.016,0.086,0.029,0.122,0.041
	c0.031,0.01,0.058,0.023,0.081,0.041c0.108,0.042,0.202,0.11,0.284,0.203c-0.06,0.002-0.114,0.016-0.162,0.04
	c-0.202,0.107-0.337,0.271-0.406,0.487c-0.073,0.21-0.06,0.413,0.041,0.609c0.037,0.069,0.077,0.123,0.122,0.162
	c-0.143,0.054-0.292,0.054-0.447,0c-3.561-1.112-6.919-3.753-10.075-7.922C4.097,44.577,2.499,38.673,2.5,31.038
	c0.001-7.645,2.709-14.145,8.125-19.5c5.337-5.408,12.041-8.252,20.109-8.531c8.039-0.269,14.823,2.249,20.353,7.556
	c5.488,5.249,7.98,11.898,7.475,19.947c-0.558,8.013-3.537,14.688-8.938,20.028c-0.102,0.104-0.21,0.171-0.325,0.203
	c-0.001-0.049-0.001-0.104,0-0.163c0.013-0.232-0.055-0.436-0.203-0.609c-0.155-0.159-0.344-0.241-0.568-0.243
	c-0.089-0.005-0.169,0.009-0.244,0.04c0.032-0.142,0.1-0.264,0.203-0.365c5.108-5.06,7.925-11.384,8.45-18.972
	c0.47-7.552-1.859-13.793-6.987-18.728c-5.195-4.985-11.574-7.343-19.135-7.069c-7.64,0.262-13.99,2.943-19.053,8.044
	C6.669,17.72,4.124,23.841,4.125,31.038c0.001,4.173,0.501,7.802,1.503,10.888c0.724,2.236,1.712,4.187,2.966,5.85
	c0.834,1.104,1.688,2.092,2.56,2.966c1.801,1.83,3.67,3.158,5.606,3.981C17.081,54.856,17.406,54.979,17.734,55.088z"/>
<path fill-rule="evenodd" clip-rule="evenodd" fill="#FFFFFF" d="M15.663,21.857c-0.692,1.168-1.911,0.477-3.656-2.072
	C19.839,9.75,24.253,7.245,25.25,12.27c-2.708,3.618-4.807,5.825-6.297,6.621C17.463,19.685,16.366,20.673,15.663,21.857z
	 M11.112,30.551l-3.981-1.625c3.071-6.085,4.858-7.547,5.362-4.388C14.928,27.719,14.468,29.723,11.112,30.551z"/>
<path fill-rule="evenodd" clip-rule="evenodd" fill="#33700B" fill-opacity="0.1569" d="M18.587,44.525
	c-1.013,1.985-2.665,3.895-4.956,5.729c-0.281,0.228-0.579,0.457-0.894,0.69c0.451-0.551,0.274-0.469-0.528,0.243
	c0.342,0.365-0.009,0.216-1.056-0.446c-0.872-0.874-1.725-1.862-2.56-2.966c-1.253-1.663-2.242-3.613-2.966-5.85
	c-0.215-0.967-0.148-1.428,0.203-1.381c2.763,0.216,4.957,0.758,6.582,1.625c1.842,0.975,3.764,1.732,5.769,2.274
	C18.331,44.484,18.467,44.511,18.587,44.525z"/>
<radialGradient id="SVGID_3_" cx="8.2183" cy="-254.6118" r="12.2873" gradientTransform="matrix(1.625 0 0 3.0136 24.6513 822.3078)" gradientUnits="userSpaceOnUse">
	<stop  offset="0.1059" style="stop-color:#161917"/>
	<stop  offset="0.9294" style="stop-color:#7E7E7E"/>
</radialGradient>
<path fill-rule="evenodd" clip-rule="evenodd" fill="url(#SVGID_3_)" d="M22.813,56.389c-1.294-0.23-2.553-0.528-3.778-0.895
	c0.923,0.019,1.776,0.181,2.56,0.488C21.995,56.134,22.401,56.27,22.813,56.389z M47.837,50.01
	c-4.301,4.053-9.312,6.354-15.031,6.906c1.37-0.265,2.751-0.658,4.144-1.178c2.979-0.65,5.552-1.814,7.719-3.494
	c0.92-0.434,1.896-1.191,2.925-2.275C47.677,49.979,47.758,49.993,47.837,50.01z"/>
<linearGradient id="SVGID_4_" gradientUnits="userSpaceOnUse" x1="7.3281" y1="-252.1689" x2="-9.0219" y2="-281.9189" gradientTransform="matrix(1.625 0 0 1.625 24.6513 468.7509)">
	<stop  offset="0.0078" style="stop-color:#031201"/>
	<stop  offset="0.1843" style="stop-color:#33700B"/>
	<stop  offset="1" style="stop-color:#FFFFFF"/>
</linearGradient>
<path fill-rule="evenodd" clip-rule="evenodd" fill="url(#SVGID_4_)" d="M32.806,56.916c5.719-0.552,10.73-2.854,15.031-6.906
	c0.028-0.029,0.056-0.058,0.082-0.081c0.108-0.092,0.229-0.146,0.365-0.163c0.075-0.031,0.155-0.045,0.244-0.04
	c0.224,0.002,0.414,0.084,0.568,0.243c0.148,0.174,0.216,0.377,0.203,0.609c-0.001,0.06-0.001,0.114,0,0.163
	c-0.045,0.157-0.126,0.292-0.244,0.406c-5.306,5.017-11.616,7.521-18.931,7.516c-4.258-0.002-8.238-0.585-11.944-1.747
	c-0.143-0.046-0.265-0.127-0.366-0.244c-0.044-0.039-0.085-0.093-0.122-0.162c-0.1-0.196-0.113-0.399-0.041-0.609
	c0.069-0.217,0.205-0.38,0.406-0.487c0.048-0.024,0.103-0.038,0.162-0.04c0.14-0.055,0.289-0.055,0.447,0
	c0.122,0.038,0.244,0.078,0.365,0.121c1.225,0.366,2.484,0.664,3.778,0.895c2.331,0.435,4.769,0.651,7.313,0.649
	C31.042,57.037,31.935,56.997,32.806,56.916z"/>
<path fill-rule="evenodd" clip-rule="evenodd" fill="#33700B" fill-opacity="0.6941" d="M42.881,52.65
	c0.596,0,1.192-0.135,1.788-0.406c-2.167,1.68-4.74,2.844-7.719,3.494C38.9,54.926,40.877,53.896,42.881,52.65z"/>
<use xlink:href="#копия_Символ_21"  width="24.6" height="6.5" y="-6.5" transform="matrix(1.7835 0 0 -1.625 16.0625 50.126)" overflow="visible" opacity="0.7813"/>
</svg>
