<?xml version="1.0" encoding="utf-8"?>
<!-- Generator: Adobe Illustrator 15.0.0, SVG Export Plug-In . SVG Version: 6.00 Build 0)  -->
<!DOCTYPE svg PUBLIC "-//W3C//DTD SVG 1.1//EN" "http://www.w3.org/Graphics/SVG/1.1/DTD/svg11.dtd">
<svg version="1.1" id="Слой_2" xmlns="http://www.w3.org/2000/svg" xmlns:xlink="http://www.w3.org/1999/xlink" x="0px" y="0px"
	 width="61px" height="64px" viewBox="0 0 61 64" enable-background="new 0 0 61 64" xml:space="preserve">
<symbol  id="копия_Символ_21" viewBox="0 -6.5 24.6 6.5">
	<g id="Слой_1_2_">
		
			<radialGradient id="SVGID_1_" cx="12.3003" cy="-3" r="12.2872" gradientTransform="matrix(1 0 0 1.8545 0 2.564)" gradientUnits="userSpaceOnUse">
			<stop  offset="0.1059" style="stop-color:#161917"/>
			<stop  offset="0.9294" style="stop-color:#7E7E7E"/>
		</radialGradient>
		<path fill-rule="evenodd" clip-rule="evenodd" fill="url(#SVGID_1_)" d="M20.95-5.45c-2.4-0.7-5.284-1.05-8.65-1.05
			C8.9-6.5,6-6.15,3.6-5.45C1.233-4.783,0.033-3.983,0-3.05c2.233-1.133,4.717-1.7,7.45-1.7C11.95-4.75,15.8-3.167,19,0
			c0.667-0.133,1.317-0.283,1.95-0.45C23.383-1.15,24.6-2,24.6-3C24.6-3.967,23.383-4.783,20.95-5.45z"/>
	</g>
</symbol>
<path fill-rule="evenodd" clip-rule="evenodd" fill="#E2E2E2" fill-opacity="0.251" d="M39.428,49.4
	c-0.039,0.024-0.079,0.052-0.122,0.082c0.975,2.004,2.167,3.06,3.575,3.168c-2.004,1.246-3.981,2.275-5.931,3.088
	c-1.406,0.525-2.801,0.918-4.185,1.178c-0.858,0.081-1.738,0.121-2.641,0.122c-2.208,0.001-4.131-0.081-5.769-0.243
	c-0.935-0.199-1.856-0.47-2.763-0.813c-1.246-0.488-2.383-1.029-3.413-1.625c-1.95-1.139-3.467-2.52-4.55-4.145
	c-0.108-0.108-0.217-0.244-0.325-0.406c2.377-1.28,4.192-2.444,5.444-3.494c0.137-1.587,2.629-3.862,7.475-6.824
	c4.837-2.96,9.563-6.969,14.178-12.025c4.628-5.053,7.892-9.062,9.791-12.025c2.654,3.143,4.496,7.016,5.525,11.619
	c1.679,7.313-0.136,13.84-5.444,19.582c0.813-1.192,1.679-2.573,2.6-4.145l-0.528-0.854c0.04-0.063,0.08-0.131,0.122-0.203
	l-0.975-1.543C49.381,37.349,48,37.24,47.35,39.569c-0.596,2.329-3.413,5.281-8.45,8.856C39.071,48.776,39.248,49.102,39.428,49.4z"
	/>
<path fill-rule="evenodd" clip-rule="evenodd" fill="#FFFFFF" fill-opacity="0.7882" d="M52.347,41.641
	c-0.876,1.49-1.702,2.804-2.478,3.941c-0.92,1.3-1.814,2.41-2.681,3.331c-1.029,1.083-2.004,1.842-2.925,2.274
	c-0.596,0.271-1.192,0.406-1.788,0.406c-1.162-0.089-2.177-0.82-3.047-2.193c-0.181-0.299-0.357-0.624-0.528-0.975
	c5.038-3.575,7.854-6.527,8.45-8.856c0.65-2.329,2.031-2.221,4.144,0.325l0.975,1.543C52.427,41.51,52.386,41.577,52.347,41.641z"/>
<linearGradient id="SVGID_2_" gradientUnits="userSpaceOnUse" x1="11.5571" y1="-254.4941" x2="-4.7924" y2="-284.2433" gradientTransform="matrix(1.625 0 0 1.625 24.6513 468.7509)">
	<stop  offset="0.0078" style="stop-color:#000000"/>
	<stop  offset="0.1961" style="stop-color:#33700B"/>
	<stop  offset="1" style="stop-color:#FFFFFF"/>
</linearGradient>
<path fill-rule="evenodd" clip-rule="evenodd" fill="url(#SVGID_2_)" d="M18.222,55.373c0.285,0.103,0.583,0.211,0.894,0.324
	c0.153,0.064,0.274,0.158,0.366,0.285c0.132-0.021,0.267-0.008,0.406,0.04c1.14,0.356,2.63,0.613,4.469,0.772
	c1.638,0.162,3.561,0.244,5.769,0.243c0.903-0.001,1.783-0.041,2.641-0.122c5.659-0.524,10.602-2.745,14.828-6.662
	c0.129-0.11,0.278-0.178,0.447-0.203V50.01c0.009-0.072,0.049-0.167,0.122-0.284v0.04l0.041-0.04c0.02-0.04,0.047-0.081,0.081-0.122
	c0.042-0.054,0.083-0.094,0.122-0.121l0.081-0.041l0.041-0.041c0.118-0.103,0.28-0.252,0.487-0.447
	c0.577-0.528,1.511-1.409,2.803-2.641c2.473-2.533,4.151-7.259,5.038-14.178c0.893-6.943-0.583-13.308-4.428-19.094
	c-3.875-5.777-10.308-8.771-19.297-8.979c-9.133-0.212-16.554,2.522-22.263,8.207c-5.727,5.697-8.3,13.077-7.719,22.141
	c0.262,4.304,0.966,7.662,2.113,10.074v0.041c0.994,2.126,2.769,4.334,5.322,6.622c1.705,1.541,3.357,2.598,4.956,3.169l0.041,0.041
	C16.295,54.645,17.175,54.983,18.222,55.373z M53.81,12.147c4.063,6.131,5.62,12.875,4.672,20.231
	c-0.956,7.382-2.797,12.406-5.525,15.072c-1.308,1.26-2.256,2.167-2.844,2.721c-0.297,0.282-0.5,0.472-0.609,0.569
	c-0.207,0.159-0.342,0.228-0.406,0.203c-0.043,0.014-0.083,0.027-0.122,0.04c-0.021,0.188-0.103,0.352-0.244,0.488
	c-5.198,4.797-11.399,7.193-18.606,7.19c-4.878-0.001-8.454-0.366-10.725-1.097c-0.176-0.057-0.312-0.152-0.406-0.285
	c-0.152,0.024-0.302,0.011-0.447-0.04c-1.478-0.556-2.684-1.03-3.616-1.422l0.041,0.04c-1.759-0.62-3.574-1.785-5.443-3.493
	c-2.755-2.479-4.665-4.876-5.729-7.19v0.041c-1.237-2.571-1.995-6.146-2.275-10.726c-0.611-9.57,2.125-17.356,8.207-23.359
	c5.991-6.016,13.791-8.914,23.4-8.694C42.775,2.663,49.668,5.899,53.81,12.147z"/>
<path fill-rule="evenodd" clip-rule="evenodd" fill="#33700B" fill-opacity="0.1569" d="M13.631,50.213
	c-0.219-0.172-1.004-0.253-2.356-0.244c-1.351,0.017-2.705-1.175-4.063-3.574c-1.359-2.406-2.091-4.465-2.194-6.176
	c3.276,0.532,5.741,1.398,7.394,2.601c1.649,1.203,3.057,1.785,4.225,1.747c1.175-0.041,1.879,0.541,2.112,1.746
	c-1.252,1.05-3.067,2.214-5.444,3.494C13.415,49.969,13.523,50.104,13.631,50.213z"/>
<path fill-rule="evenodd" clip-rule="evenodd" fill="#FFFFFF" d="M11.275,33.15l-3.981-1.625c3.087-6.066,4.875-7.529,5.362-4.387
	C15.094,30.334,14.633,32.338,11.275,33.15z M15.175,20.232c7.854-10.076,12.269-12.594,13.244-7.557
	c-2.708,3.629-4.794,5.85-6.256,6.662c-1.517,0.759-2.627,1.733-3.332,2.926C18.127,23.455,16.908,22.777,15.175,20.232z"/>
<radialGradient id="SVGID_3_" cx="8.2183" cy="-254.6118" r="12.2873" gradientTransform="matrix(1.625 0 0 3.0136 24.6513 822.3078)" gradientUnits="userSpaceOnUse">
	<stop  offset="0.1059" style="stop-color:#161917"/>
	<stop  offset="0.9294" style="stop-color:#7E7E7E"/>
</radialGradient>
<path fill-rule="evenodd" clip-rule="evenodd" fill="url(#SVGID_3_)" d="M18.181,54.357c1.029,0.596,2.167,1.137,3.413,1.625
	c0.907,0.343,1.828,0.613,2.763,0.813c-1.838-0.159-3.329-0.416-4.469-0.772c-0.14-0.048-0.274-0.062-0.406-0.04
	c-0.091-0.127-0.212-0.221-0.366-0.285c-0.311-0.113-0.609-0.222-0.894-0.324l-0.203-0.366
	C18.019,54.79,18.073,54.573,18.181,54.357z M44.669,52.244c0.92-0.434,1.896-1.191,2.925-2.275
	c0.145,0.019,0.294,0.032,0.447,0.041v0.041c-0.168,0.025-0.317,0.093-0.447,0.203c-4.227,3.917-9.169,6.138-14.828,6.662
	c1.384-0.26,2.779-0.652,4.185-1.178C39.929,55.088,42.502,53.924,44.669,52.244z"/>
<path fill-rule="evenodd" clip-rule="evenodd" fill="#33700B" fill-opacity="0.6941" d="M44.669,52.244
	c-2.167,1.68-4.74,2.844-7.719,3.494c1.95-0.813,3.927-1.842,5.931-3.088C43.477,52.65,44.073,52.516,44.669,52.244z"/>
<use xlink:href="#копия_Символ_21"  width="24.6" height="6.5" y="-6.5" transform="matrix(1.625 0 0 -1.625 18.0127 50.126)" overflow="visible" opacity="0.7813"/>
</svg>
