<?xml version="1.0" encoding="utf-8"?>
<!-- Generator: Adobe Illustrator 15.0.0, SVG Export Plug-In . SVG Version: 6.00 Build 0)  -->
<!DOCTYPE svg PUBLIC "-//W3C//DTD SVG 1.1//EN" "http://www.w3.org/Graphics/SVG/1.1/DTD/svg11.dtd">
<svg version="1.1" id="Selected_Items" xmlns="http://www.w3.org/2000/svg" xmlns:xlink="http://www.w3.org/1999/xlink" x="0px"
	 y="0px" width="69px" height="68.996px" viewBox="0 0 69 68.996" enable-background="new 0 0 69 68.996" xml:space="preserve">
<radialGradient id="SVGID_1_" cx="36.3086" cy="195.1826" r="12.288" gradientTransform="matrix(1 0 0 -1.8545 0.04 413.2144)" gradientUnits="userSpaceOnUse">
	<stop  offset="0.1059" style="stop-color:#161917"/>
	<stop  offset="0.9294" style="stop-color:#7E7E7E"/>
</radialGradient>
<path fill="url(#SVGID_1_)" d="M27.65,53.698c-2.4-0.667-3.601-1.483-3.601-2.45c0-1,1.2-1.85,3.601-2.55c2.399-0.667,5.3-1,8.7-1
	c3.366,0,6.25,0.333,8.649,1c2.435,0.7,3.649,1.55,3.649,2.55c0,0.967-1.217,1.783-3.649,2.45c-2.399,0.7-5.283,1.05-8.649,1.05
	C32.95,54.748,30.05,54.398,27.65,53.698z"/>
<path fill="#33CC33" fill-opacity="0.6784" d="M47.5,13.198c3.837,2.998,5.662,5.731,5.475,8.2
	c-0.188,2.468-0.656,4.692-1.398,6.675c-0.743,1.979-1.193,2.112-1.352,0.399c-0.158-1.713-0.49-3.254-1-4.625
	c-0.511-1.368-1.636-3.052-3.375-5.05c-1.733-1.999-3.935-3.1-6.6-3.3c1.3-0.566,2.816-1.4,4.55-2.5
	C45.066,12.198,46.3,12.265,47.5,13.198z"/>
<path fill="#0099FF" fill-opacity="0.6784" d="M44.75,19.198c3.833,3,5.6,6.684,5.3,11.05c-0.337,4.371-0.962,7.563-1.875,9.575
	c-0.383,0.85-0.608,0.524-0.675-0.976c-0.033-2.801-0.116-5.333-0.25-7.601c-0.167-2.3-1.417-4.533-3.75-6.7
	c-2-1.833-4.25-3.184-6.75-4.05c1.134,0.1,2.566-0.4,4.3-1.5C42.316,18.198,43.55,18.265,44.75,19.198z"/>
<path fill="#FF0000" fill-opacity="0.6784" d="M43.25,46.498c-1.902,2.634-5.236,4.3-10,5c-4.766,0.695-8.724-0.362-11.875-3.175
	c-3.15-2.808-4.783-6.023-4.9-9.65c-0.117-3.631,0.874-5.598,2.976-5.899c2.094-0.299,5.294-2.433,9.6-6.4
	c4.31-3.971,8.385-4.454,12.227-1.45c3.838,3.008,5.604,6.699,5.3,11.075C46.271,40.368,45.162,43.868,43.25,46.498z"/>
<path fill="#990000" d="M37.15,28.523c-0.496,0.003-0.912,0.178-1.25,0.524c-0.348,0.339-0.521,0.756-0.525,1.25
	c0.004,0.495,0.18,0.911,0.525,1.25c0.338,0.347,0.754,0.521,1.25,0.525c0.494-0.004,0.91-0.179,1.25-0.525
	c0.346-0.339,0.521-0.755,0.523-1.25c-0.004-0.494-0.179-0.911-0.523-1.25C38.063,28.701,37.645,28.526,37.15,28.523z M35.7,28.848
	c0.396-0.387,0.878-0.578,1.45-0.574c0.57-0.004,1.055,0.188,1.449,0.574c0.387,0.395,0.578,0.878,0.574,1.45
	c0.004,0.572-0.188,1.056-0.574,1.45c-0.396,0.387-0.879,0.578-1.449,0.575c-0.572,0.003-1.057-0.188-1.45-0.575
	c-0.388-0.395-0.579-0.878-0.575-1.45C35.121,29.726,35.313,29.242,35.7,28.848z M24.625,25.998c0.004,0.038-0.005,0.071-0.025,0.1
	c-0.028,0.021-0.062,0.029-0.1,0.025c-0.038,0.004-0.071-0.005-0.1-0.025c-0.021-0.028-0.029-0.062-0.025-0.1v-1.25
	c-0.004-0.038,0.005-0.071,0.025-0.1c0.028-0.021,0.062-0.029,0.1-0.025c0.038-0.004,0.071,0.005,0.1,0.025
	c0.021,0.028,0.029,0.062,0.025,0.1V25.998z M22.45,26.123c0.033-0.014,0.066-0.014,0.1,0l1.25,0.5
	c0.034,0.016,0.06,0.041,0.075,0.075c0.014,0.033,0.014,0.066,0,0.1c-0.016,0.034-0.041,0.06-0.075,0.075
	c-0.033,0.014-0.066,0.014-0.1,0l-1.25-0.5c-0.034-0.016-0.06-0.041-0.075-0.075c-0.014-0.033-0.014-0.066,0-0.1
	C22.391,26.164,22.416,26.139,22.45,26.123z M26.8,31.248c-0.278,0.271-0.42,0.588-0.425,0.95c0.005,0.362,0.146,0.679,0.425,0.95
	c0.271,0.278,0.588,0.42,0.95,0.425c0.362-0.005,0.679-0.146,0.95-0.425c0.278-0.271,0.42-0.588,0.425-0.95
	c-0.005-0.362-0.146-0.68-0.425-0.95c-0.271-0.278-0.588-0.421-0.95-0.425C27.388,30.827,27.071,30.97,26.8,31.248z M26.125,32.198
	c-0.005-0.438,0.153-0.821,0.475-1.15c0.329-0.321,0.713-0.479,1.15-0.475c0.438-0.005,0.821,0.153,1.15,0.475
	c0.321,0.329,0.479,0.713,0.475,1.15c0.005,0.438-0.153,0.82-0.475,1.149c-0.329,0.321-0.713,0.479-1.15,0.476
	c-0.438,0.004-0.821-0.154-1.15-0.476C26.278,33.019,26.12,32.636,26.125,32.198z M25.65,26.148c0.028-0.021,0.062-0.029,0.1-0.025
	c0.425-0.001,0.833-0.034,1.225-0.1c0.036-0.005,0.07,0.003,0.101,0.024c0.027,0.019,0.044,0.043,0.05,0.075
	c0.005,0.036-0.004,0.069-0.025,0.1c-0.018,0.028-0.043,0.045-0.074,0.051c-0.408,0.066-0.834,0.101-1.275,0.1
	c-0.038,0.004-0.071-0.005-0.1-0.025c-0.021-0.028-0.029-0.062-0.025-0.1C25.621,26.21,25.63,26.177,25.65,26.148z"/>
<path fill="#FFFFFF" fill-opacity="0.6784" d="M36.05,38.048c-0.434,0.435-0.967,0.65-1.6,0.65c-0.634,0-1.184-0.218-1.65-0.65
	c-0.434-0.434-0.649-0.967-0.649-1.6c0-0.634,0.216-1.167,0.649-1.601c0.467-0.433,1.017-0.649,1.65-0.649
	c0.633,0,1.166,0.217,1.6,0.649c0.435,0.434,0.65,0.967,0.65,1.601C36.7,37.081,36.482,37.614,36.05,38.048z M43.1,39.848
	c0.367,0.367,0.551,0.801,0.551,1.301s-0.184,0.916-0.551,1.25c-0.332,0.334-0.75,0.5-1.25,0.5s-0.916-0.166-1.25-0.5
	c-0.332-0.334-0.5-0.75-0.5-1.25s0.168-0.934,0.5-1.301c0.334-0.332,0.75-0.5,1.25-0.5S42.768,39.516,43.1,39.848z M21.1,37.148
	c-0.633,0-1.166-0.217-1.6-0.65c-0.467-0.434-0.7-0.967-0.7-1.6c0-0.634,0.233-1.167,0.7-1.601c0.434-0.467,0.967-0.7,1.6-0.7
	c0.634,0,1.167,0.233,1.601,0.7c0.434,0.434,0.649,0.967,0.649,1.601c0,0.633-0.216,1.167-0.649,1.6
	C22.268,36.932,21.733,37.148,21.1,37.148z M23.35,43.648c-0.333-0.334-0.5-0.75-0.5-1.25s0.167-0.935,0.5-1.301
	c0.334-0.334,0.75-0.5,1.25-0.5s0.917,0.166,1.25,0.5c0.367,0.366,0.551,0.801,0.551,1.301s-0.184,0.916-0.551,1.25
	c-0.333,0.332-0.75,0.5-1.25,0.5S23.684,43.98,23.35,43.648z M33.8,49.598c0.434,0.435,0.65,0.967,0.65,1.602
	c-0.613,0.006-1.113,0.131-1.5,0.375c-0.066-0.012-0.134-0.02-0.2-0.025c-0.526-0.042-0.969,0.008-1.325,0.15
	c-0.276-0.073-0.584-0.123-0.925-0.15c-0.205-0.017-0.396-0.017-0.575,0c-0.017-0.115-0.024-0.23-0.024-0.35
	c0-0.635,0.216-1.167,0.649-1.602c0.467-0.433,1.017-0.648,1.65-0.648C32.833,48.948,33.366,49.165,33.8,49.598z"/>
<path fill="#770303" fill-opacity="0.6941" d="M45.2,40.348c0.032,1.367-0.55,3.2-1.75,5.5c-2.267,4.367-6.334,6.4-12.2,6.102
	c-5.9-0.434-9.934-2.566-12.1-6.4c-1.101-1.967-1.567-3.316-1.4-4.05C24.983,47.098,34.134,46.715,45.2,40.348z"/>
<path fill="#FFFFFF" fill-opacity="0.298" d="M47.25,34.048c1.268,5.533-0.732,10.334-6,14.4c-5.3,4.032-10.3,5.166-15,3.399
	c-2.333-0.899-4.033-2.166-5.1-3.801c10.65-5.749,18.217-12.799,22.7-21.149C45.482,28.831,46.616,31.215,47.25,34.048z"/>
<path fill="#FFFFFF" fill-opacity="0.7882" d="M45.5,43.548c-3.8,6.468-6.583,7.9-8.35,4.3c3.1-2.199,4.832-4.017,5.199-5.449
	c0.399-1.434,1.25-1.366,2.551,0.199L45.5,43.548z"/>
<path fill="#FFFFFF" d="M19.775,36.198l-2.45-1c0.397-4.896,1.506-5.795,3.325-2.7C20.735,34.262,20.444,35.495,19.775,36.198z
	 M20.25,29.448l-0.5-1c4.447-6.059,7.364-7.226,8.75-3.5c-3.336,1.896-5.261,3.537-5.775,4.925
	C22.212,31.267,21.388,31.125,20.25,29.448z"/>
<linearGradient id="SVGID_2_" gradientUnits="userSpaceOnUse" x1="50.3105" y1="36.9619" x2="39.2355" y2="57.1119" gradientTransform="matrix(1 0 0 -1 0.04 68.2109)">
	<stop  offset="0.0078" style="stop-color:#000000"/>
	<stop  offset="0.1961" style="stop-color:#088B00"/>
	<stop  offset="1" style="stop-color:#FFFFFF"/>
</linearGradient>
<path fill="url(#SVGID_2_)" d="M32.975,16.598c-0.121,0.006-0.229-0.027-0.324-0.1c-0.113-0.082-0.18-0.19-0.2-0.325
	c-0.018-0.138,0.016-0.263,0.1-0.375c0.033-0.043,0.067-0.085,0.101-0.125c0.321-0.407,0.672-0.799,1.05-1.175
	c2.262-2.3,5.012-3.449,8.25-3.45c3.237,0.001,5.987,1.15,8.25,3.45c2.299,2.263,3.448,5.013,3.45,8.25
	c-0.004,2.828-0.87,5.27-2.602,7.325c-0.043,0.054-0.084,0.104-0.125,0.149c-0.094,0.105-0.21,0.164-0.35,0.176
	c-0.133,0.008-0.25-0.033-0.352-0.125c-0.104-0.094-0.162-0.21-0.175-0.351v-0.05c0.005-0.112,0.046-0.213,0.125-0.3
	c0.308-0.355,0.582-0.722,0.825-1.101c1.104-1.666,1.652-3.574,1.65-5.725c0-2.962-1.051-5.479-3.15-7.55
	c-2.07-2.101-4.588-3.15-7.55-3.15c-2.964,0-5.479,1.05-7.55,3.15c-0.042,0.042-0.084,0.084-0.125,0.125
	c-0.334,0.346-0.643,0.704-0.926,1.075c-0.047,0.063-0.105,0.114-0.175,0.149c-0.043,0.024-0.093,0.041-0.149,0.05h-0.05V16.598z"/>
<linearGradient id="SVGID_3_" gradientUnits="userSpaceOnUse" x1="47.0908" y1="28.0278" x2="33.2658" y2="53.1778" gradientTransform="matrix(1 0 0 -1 0.04 68.2109)">
	<stop  offset="0.0078" style="stop-color:#000000"/>
	<stop  offset="0.1961" style="stop-color:#004B8B"/>
	<stop  offset="1" style="stop-color:#FFFFFF"/>
</linearGradient>
<path fill="url(#SVGID_3_)" d="M33.175,16.548c0.069-0.035,0.128-0.086,0.175-0.149c0.283-0.371,0.592-0.729,0.926-1.075
	c0.756-0.115,1.531-0.173,2.324-0.175c4.006,0,7.404,1.417,10.2,4.25c2.563,2.529,3.964,5.554,4.2,9.074
	c-0.243,0.379-0.518,0.745-0.825,1.101c-0.079,0.087-0.12,0.188-0.125,0.3c0-0.093,0-0.185,0-0.275
	c0.001-3.729-1.315-6.896-3.95-9.5c-2.604-2.634-5.771-3.95-9.5-3.949C35.416,16.145,34.274,16.278,33.175,16.548z M50.05,29.923
	c0.013,0.141,0.069,0.257,0.175,0.351c0.102,0.092,0.219,0.133,0.352,0.125c0.14-0.012,0.256-0.07,0.35-0.176
	c0.041-0.046,0.082-0.096,0.125-0.149c-0.105,3.01-1.006,5.668-2.699,7.975c-0.082,0.112-0.189,0.18-0.324,0.2
	c-0.139,0.019-0.264-0.017-0.375-0.101c-0.112-0.082-0.18-0.189-0.2-0.324c-0.019-0.139,0.016-0.264,0.1-0.375
	C49.15,35.275,49.982,32.767,50.05,29.923z M32.975,16.598c-2.21,0.595-4.168,1.762-5.875,3.5c-0.448,0.451-0.865,0.917-1.25,1.4
	c-0.091,0.112-0.208,0.18-0.35,0.2c-0.131,0.018-0.248-0.016-0.35-0.101c-0.113-0.091-0.18-0.208-0.2-0.35
	c-0.018-0.131,0.016-0.247,0.1-0.35c0.416-0.518,0.866-1.018,1.351-1.5c1.819-1.854,3.903-3.095,6.25-3.726
	c-0.033,0.04-0.067,0.082-0.101,0.125c-0.084,0.112-0.117,0.237-0.1,0.375c0.021,0.135,0.087,0.243,0.2,0.325
	C32.745,16.57,32.854,16.604,32.975,16.598z"/>
<linearGradient id="SVGID_4_" gradientUnits="userSpaceOnUse" x1="39.6348" y1="16.8379" x2="23.2853" y2="46.587" gradientTransform="matrix(1 0 0 -1 0.04 68.2109)">
	<stop  offset="0.0078" style="stop-color:#000000"/>
	<stop  offset="0.1961" style="stop-color:#950D0D"/>
	<stop  offset="1" style="stop-color:#FFFFFF"/>
</linearGradient>
<path fill="url(#SVGID_4_)" d="M43.5,24.498c3.333,3.296,4.999,7.296,5,12c-0.001,4.704-1.667,8.704-5,12
	c-3.296,3.333-7.296,4.999-12,5c-4.704-0.001-8.704-1.667-12-5c-3.333-3.296-4.999-7.296-5-12c0.001-4.704,1.667-8.704,5-12
	c3.296-3.333,7.296-4.999,12-5C36.204,19.499,40.204,21.165,43.5,24.498z M47.5,36.498c0.001-4.429-1.564-8.196-4.7-11.3
	c-3.104-3.135-6.87-4.701-11.3-4.7c-4.429-0.001-8.196,1.565-11.3,4.7c-3.135,3.104-4.701,6.871-4.7,11.3
	c-0.001,4.429,1.565,8.195,4.7,11.3c3.104,3.136,6.871,4.701,11.3,4.7c4.43,0.001,8.195-1.564,11.3-4.7
	C45.936,44.693,47.501,40.927,47.5,36.498z"/>
</svg>
